<?xml version="1.0" standalone="no"?><!DOCTYPE svg PUBLIC "-//W3C//DTD SVG 1.1//EN" "http://www.w3.org/Graphics/SVG/1.1/DTD/svg11.dtd"><svg width="200" height="200" viewBox="0 0 200 200" version="1.1" xmlns="http://www.w3.org/2000/svg" xmlns:xlink="http://www.w3.org/1999/xlink"><defs><style type="text/css"><![CDATA[
@font-face { font-family: ifont; src: url("http://at.alicdn.com/t/font_1442373896_4754455.eot?#iefix") format("embedded-opentype"), url("http://at.alicdn.com/t/font_1442373896_4754455.woff") format("woff"), url("http://at.alicdn.com/t/font_1442373896_4754455.ttf") format("truetype"), url("http://at.alicdn.com/t/font_1442373896_4754455.svg#ifont") format("svg"); }

]]></style></defs><g class="transform-group"><g transform="scale(0.1953125, 0.1953125)"><path d="M272.242939 508.6016c0-131.954311 106.96108-238.927671 238.915391-238.927671s238.915391 106.97336 238.915391 238.927671c0 131.953288-106.960057 238.902088-238.915391 238.902088S272.242939 640.554888 272.242939 508.6016zM491.401358 71.137177l39.515992 0 0 138.309042-39.515992 0 0-138.309042ZM491.401358 813.174364l39.515992 0 0 138.306996-39.515992 0 0-138.306996ZM813.028543 488.843604l138.309042 0 0 39.517015-138.309042 0 0-39.517015ZM70.980099 488.843604l138.309042 0 0 39.517015-138.309042 0 0-39.517015ZM700.967908 123.177776l34.218191 19.756461-69.151451 119.770314-34.218191-19.756461 69.151451-119.770314ZM295.011502 905.379369 260.795213 885.619326 329.949222 765.833149 364.165512 785.593192ZM343.10894 259.768325 273.96721 139.983171 308.184523 120.224152 377.325229 240.009306ZM714.133162 902.382105 644.978129 782.609231 679.195441 762.850212 748.350474 882.622062ZM139.85616 274.093527l119.752939 69.163235-19.759901 34.213353-119.752939-69.163235 19.759901-34.213353ZM782.460148 645.112992l119.7712 69.151963-19.756461 34.218191-119.7712-69.151963 19.756461-34.218191ZM139.851677 748.506529 120.092657 714.290239 239.877811 645.147486 259.637854 679.364799ZM882.501028 274.14162l19.760412 34.218191-119.772086 69.166305-19.760412-34.218191 119.772086-69.166305Z" fill="#f4c600"></path></g></g></svg>