<?xml version="1.0" standalone="no"?><!DOCTYPE svg PUBLIC "-//W3C//DTD SVG 1.1//EN" "http://www.w3.org/Graphics/SVG/1.1/DTD/svg11.dtd"><svg width="200" height="200" viewBox="0 0 200 200" version="1.1" xmlns="http://www.w3.org/2000/svg" xmlns:xlink="http://www.w3.org/1999/xlink"><defs><style type="text/css"><![CDATA[
@font-face { font-family: ifont; src: url("http://at.alicdn.com/t/font_1442373896_4754455.eot?#iefix") format("embedded-opentype"), url("http://at.alicdn.com/t/font_1442373896_4754455.woff") format("woff"), url("http://at.alicdn.com/t/font_1442373896_4754455.ttf") format("truetype"), url("http://at.alicdn.com/t/font_1442373896_4754455.svg#ifont") format("svg"); }

]]></style></defs><g class="transform-group"><g transform="scale(0.1953125, 0.1953125)"><path d="M37.376 799.936h949.248v32h-949.248v-32zM578.112 307.072l-14.4-19.328-14.144 19.648c-0.192 0.32-36.8 51.264-73.664 116.224-36.736 65.28-74.432 142.912-74.88 203.2-0.32 58.112 24.768 99.328 57.984 123.712 33.28 24.384 73.024 33.216 104.832 33.28 32.128-0.064 73.216-9.344 108.032-33.92 34.88-24.256 62.144-65.472 61.888-123.136-0.576-59.776-40-137.344-78.464-202.816-38.528-65.216-76.864-116.544-77.184-116.864M651.072 723.392c-27.072 19.392-62.208 27.456-87.232 27.328-25.152 0.128-58.176-7.552-83.392-26.368-25.28-19.008-44.352-47.936-44.672-97.472-0.448-47.232 34.688-124.608 70.656-187.52 22.080-38.912 44.096-72.64 57.856-92.928 14.336 20.48 37.44 54.592 60.672 93.696 37.76 63.040 74.496 140.608 73.856 186.624-0.192 48-20.544 77.056-47.744 96.64M287.232 179.904l-15.36-19.968-14.784 20.224c-0.256 0.256-26.944 36.8-53.952 83.328-26.816 46.912-54.592 102.336-55.104 147.456-0.256 42.752 18.88 73.984 44.352 92.224 25.472 18.304 55.424 24.768 79.808 24.896 24.512-0.128 55.36-6.976 81.984-25.344 26.56-17.984 47.488-49.344 47.168-92.032-0.576-44.8-29.696-100.032-57.728-147.136-28.224-46.592-56.128-83.392-56.384-83.648M332.224 475.392c-18.496 12.992-43.072 18.56-60.032 18.432-17.28 0.064-40.192-5.12-57.28-17.664-16.896-12.672-29.952-31.36-30.208-65.216-0.448-31.68 24.64-86.72 50.688-131.2 13.632-23.552 27.264-44.416 37.056-59.008 10.432 14.656 24.768 35.84 39.104 59.712 27.328 44.544 53.696 99.84 53.056 130.368-0.128 32.64-13.952 51.392-32.384 64.576M844.032 103.296c-11.52-18.688-22.72-35.328-31.168-47.36-4.16-5.952-7.744-10.752-10.24-14.208-1.28-1.664-2.176-2.944-2.88-3.904l-0.192-0.064-0.512-0.768-28.48-36.992-27.008 36.8c-0.32 0.384-21.888 29.568-43.456 66.624-21.184 37.44-44.544 81.472-45.504 122.88-0.128 1.216 0 1.344 0 1.408-0.128 37.952 17.664 67.968 42.368 85.248 24.128 17.152 51.648 23.040 74.176 23.040 23.040-0.064 50.88-6.208 75.776-23.104 25.216-16.96 44.928-46.784 44.8-85.312 0 0 0.064 0 0.064-0.832-0.96-41.856-25.664-85.76-47.744-123.456M858.24 227.584c-0.128 28.672-14.016 48.576-31.168 60.352-18.048 12.288-39.36 17.088-55.936 17.088-16.384 0-36.864-4.48-53.824-16.64v0c-16.256-11.52-29.184-31.488-29.248-60.608v-0.64c0.064-30.592 20.672-72.96 41.6-109.12 19.84-33.984 39.296-60.608 41.536-63.744 1.92 2.688 22.656 30.016 43.52 64.192 21.888 36.096 43.392 78.464 43.584 108.544 0-0.32-0.064-0.32-0.064 0.576zM37.376 864l47.488-48.128 15.808 16.064-47.488 48.064zM37.376 943.936l126.528-128.064 15.872 16.064-126.592 128.064zM37.376 1024l205.632-208.128 15.808 16.064-189.76 192.064zM116.48 1024l205.632-208.128 15.872 16.064-189.888 192.064zM195.584 1024l205.696-208.128 15.808 16.064-189.824 192.064zM274.688 1024l205.632-208.128 15.872 16.064-189.888 192.064zM353.792 1024l205.632-208.128 15.808 16.064-189.824 192.064zM432.896 1024l205.632-208.128 15.872 16.064-189.888 192.064zM512 1024l205.632-208.128 15.808 16.064-189.76 192.064zM591.104 1024l205.632-208.128 15.808 16.064-189.824 192.064zM670.208 1024l205.696-208.128 15.808 16.064-189.824 192.064zM749.248 1024l205.632-208.128 15.936 16.064-189.888 192.064zM828.352 1024l158.272-160v32l-126.592 128zM907.52 1024l79.104-80.064v32.064l-47.552 48zM227.264 367.936c0 0-19.264 100.48 79.040 80 0 0-54.336-28.544-79.040-80zM717.632 191.872c0 0-19.264 100.544 79.104 80 0 0-54.336-28.48-79.104-80zM496.192 591.872c0 0-28.16 124.032 94.912 96.064 0 0-68.736-35.008-94.912-96.064z" fill="#33475f"></path></g></g></svg>