<?xml version="1.0" standalone="no"?><!DOCTYPE svg PUBLIC "-//W3C//DTD SVG 1.1//EN" "http://www.w3.org/Graphics/SVG/1.1/DTD/svg11.dtd"><svg width="200.1953125" height="200" viewBox="0 0 200.1953125 200" version="1.1" xmlns="http://www.w3.org/2000/svg" xmlns:xlink="http://www.w3.org/1999/xlink"><defs><style type="text/css"><![CDATA[
@font-face { font-family: ifont; src: url("http://at.alicdn.com/t/font_1442373896_4754455.eot?#iefix") format("embedded-opentype"), url("http://at.alicdn.com/t/font_1442373896_4754455.woff") format("woff"), url("http://at.alicdn.com/t/font_1442373896_4754455.ttf") format("truetype"), url("http://at.alicdn.com/t/font_1442373896_4754455.svg#ifont") format("svg"); }

]]></style></defs><g class="transform-group"><g transform="scale(0.1953125, 0.1953125)"><path d="M512 981.376c-54.784 0-106.176-23.104-144.832-65.152l-30.848-33.728c-61.248-66.752-151.36-90.88-196.416-52.352l-100.672 85.632c-9.856 8.384-24.896 7.36-33.536-2.752-8.576-9.984-7.168-25.024 2.688-33.472l100.736-85.632c65.216-55.232 182.848-30.016 262.336 56.512l30.848 33.728c29.632 32.256 68.544 50.88 110.592 49.6 41.728-0.256 80.704-18.24 110.016-50.752l27.904-30.976c78.464-87.36 196.416-113.28 262.4-58.24l102.336 85.632c10.048 8.384 11.392 23.36 2.944 33.344-8.256 10.112-23.232 11.648-33.344 3.136l-102.336-85.632c-46.272-38.528-136.192-13.888-196.736 53.504l-27.84 30.976c-38.4 42.624-89.856 66.24-145.088 66.624C512.832 981.376 512.384 981.376 512 981.376M298.624 661.376c0-7.872 0.576-15.616 1.344-23.232C231.872 600.256 156.48 597.568 109.056 638.016l-100.672 85.504c-9.92 8.512-11.264 23.488-2.688 33.472 8.64 10.112 23.68 11.264 33.472 2.752l100.672-85.632c37.12-31.488 104.832-20.736 161.792 21.376C299.84 684.352 298.624 673.024 298.624 661.376M1015.424 723.392l-102.272-85.504c-47.488-39.744-121.92-37.12-189.248-0.128 0.896 7.744 1.344 15.616 1.344 23.616 0 11.392-1.216 22.4-2.944 33.344 56.128-41.28 122.624-51.776 160.256-20.352l102.336 85.504c10.112 8.512 25.28 6.976 33.408-3.008C1026.816 746.752 1025.536 731.776 1015.424 723.392L1015.424 723.392zM426.624 298.688l42.688 0 0 42.688-42.688 0 0-42.688ZM597.312 513.664 597.312 128c0-47.104-38.272-85.312-85.312-85.312S426.624 80.896 426.624 128l0 21.312 53.44 0c11.776 0 21.248 9.536 21.248 21.312 0 0.512-0.32 1.024-0.32 1.6C504.576 171.264 508.16 170.688 512 170.688c23.552 0 42.688 19.136 42.688 42.688l0 326.656 12.096 5.76C611.264 566.976 640 612.224 640 661.376c0 70.528-57.344 128-128 128-70.592 0-128-57.472-128-128 0-49.152 28.736-94.4 73.216-115.584l12.096-5.76L469.312 384 426.624 384l0 129.664C374.464 544 341.312 600.512 341.312 661.376 341.312 755.392 417.856 832 512 832c94.08 0 170.688-76.608 170.688-170.624C682.688 600.512 649.472 544 597.312 513.664M426.624 234.688l42.688 0L469.312 213.312c0-7.872 2.304-15.04 5.952-21.376l-48.64 0L426.624 234.688 426.624 234.688zM512 149.312c-7.232 0-14.208 1.472-20.672 3.712 5.888 3.84 9.984 10.112 9.984 17.664C501.312 182.464 491.84 192 479.936 192L451.968 192C449.472 198.656 448 205.76 448 213.312l0 21.312 53.312 0c17.664 0 32 14.336 32 32s-14.336 32-32 32L448 298.624l0 42.688 32.064 0c11.776 0 21.248 9.536 21.248 21.312S491.84 384 480.064 384L448 384l0 64 127.936 0L575.936 213.312C575.936 177.984 547.328 149.312 512 149.312L512 149.312z" fill="#56abe4"></path></g></g></svg>